<?xml version="1.0" encoding="utf-8"?>
<!-- Generator: Adobe Illustrator 26.0.3, SVG Export Plug-In . SVG Version: 6.00 Build 0)  -->
<svg version="1.1" xmlns="http://www.w3.org/2000/svg" xmlns:xlink="http://www.w3.org/1999/xlink" x="0px" y="0px"
	 viewBox="0 0 652.28 347.88" style="enable-background:new 0 0 652.28 347.88;" xml:space="preserve">
<style type="text/css">
	.st0{fill:#36499B;}
	.st1{font-family:'EncodeSans-SemiBold';}
	.st2{font-size:14px;}
	.st3{fill:#888F97;}
	.st4{font-family:'EncodeSans-Regular';}
	.st5{font-size:12px;}
	.st6{fill:#555E68;}
	.st7{fill:#818385;}
	.st8{font-size:9px;}
	.st9{fill:none;stroke:#CED0D1;stroke-width:0.5;stroke-miterlimit:10;}
	.st10{fill:none;stroke:#36499B;stroke-width:0.991;}
	.st11{clip-path:url(#SVGID_00000086669761416417512980000013922230556850541223_);}
</style>
<g id="Layer_1">
	<line class="st9" x1="0" y1="294.81" x2="479.67" y2="294.81"/>
	<g>
		<defs>
			<rect id="SVGID_1_" x="393.38" y="39.35" width="258.85" height="285.78"/>
		</defs>
		<clipPath id="SVGID_00000044176215671886262520000011940270170263330971_">
			<use xlink:href="#SVGID_1_"  style="overflow:visible;"/>
		</clipPath>
		
			<g id="Group_36_00000008866175142050482770000002894835531105904046_" transform="translate(0.5 0.5)" style="clip-path:url(#SVGID_00000044176215671886262520000011940270170263330971_);">
			<path id="Path_988_00000013887643231804051930000007161107020823636897_" class="st9" d="M477.13,306.41l3.07-18.26L438.57,187.3
				c0,0-1.54-2.22-1.71-6.65c-0.17-4.44,0.68-7.17,0.68-7.17h-12.46c0,0-0.79-1.3,1.96-1.36c2.75-0.06-0.13-1.15-0.13-1.15h-7.42
				l-8.45-2.43l1.47-12.67l16.76-0.83l0.06-2.11l14.33-1.09c0,0,1.51-1.28,1.94-1.6l0.43-0.32v-4.16l2.3-2.11h10.49
				c0.63-0.37,1.29-0.67,1.98-0.9c1.15-0.38,2.05-0.64,2.05-0.64l3.84-3.07c0,0-2.18-0.58-2.37-1.41c-0.19-0.83-0.26-2.56,0.45-2.62
				c0.7-0.06,2.5,0.26,2.5,0.26l0.9-2.62l-2.88-0.77c0,0-0.7-1.41,0.26-1.86s9.34,2.69,9.34,2.69l3.33-2.37l19-1.98l17.47-6.27
				l42.68-2.43l35.45,2.69l23.55-0.45l18.04,16.45l-1.6,2.94l42.23-0.64v1.22l24.76,0.06l3.2,3.39l-0.38,13.95l-22.33,0.83
				c0,0-1.86,0.13-2.43,1.22s-0.38,1.6-0.38,1.6l1.41,19c0,0,17.09,4.22,22.4,6.08c3.39,1.23,6.64,2.84,9.66,4.8l-7.42,43.51
				c0,0-2.11,7.1-2.37,11.2c-0.26,4.1-1.15,8.19,1.54,9.41c2.69,1.22,9.79,0.58,11.07,0.64c1.28,0.06,12.29,1.98,12.29,1.98
				l28.03,7.17v9.15l-90.93,18.11c0,0-130.54,8.45-144.74,9.6C504.22,304.7,486.78,305.17,477.13,306.41z"/>
			<path id="Path_989_00000161627360241690991020000003715062740170484917_" class="st9" d="M436.69,182.18
				c0,0,1.71-12.63,17.58-17.92c15.87-5.29,54.77-7,83.95-4.1c29.18,2.9,140.69,21.74,140.69,21.74"/>
			<path id="Path_990_00000163756327572799594600000008501387123825057960_" class="st9" d="M462.89,142.1
				c0,0,19.45-5.95,22.91-6.33c3.46-0.38,22.52-1.02,30.07,0c7.55,1.02,82.03,11.13,89.07,12.29s56.31,10.11,56.31,10.11
				s0.13-1.41,2.56-1.54c2.43-0.13,35.71-0.51,35.71-0.51l3.14,3.14"/>
			<path id="Path_991_00000114777588809264786300000000328255336488895647_" class="st9" d="M480.46,306.04l10.5-55.77
				c0,0,0.34-1.54,0-2.39s-3.33-1.02-4.01-0.6s-6.74,40.87-6.74,40.87"/>
			<path id="Path_992_00000168077285391833627770000016661916029744111015_" class="st9" d="M455.7,228.79c0,0,3.35-7.54,17.68-9.84
				s78.32,0.77,96.75,2.3c18.43,1.54,133.66,13.62,133.66,13.62"/>
			<path id="Path_993_00000030474019876938556210000012072368983294196631_" class="st9" d="M574.28,194.12
				c56.2,7.02,133.24,18.91,133.24,18.91"/>
			<path id="Path_994_00000150103979749944519910000016468185610595048080_" class="st9" d="M445.99,205.28
				c0,0,7.17-9.88,14.84-12.18c7.68-2.3,28.41-7.68,79.6-2.82c4.59,0.44,9.7,0.98,15.2,1.6"/>
			<path id="Path_995_00000022557215046543101830000010228668599524914311_" class="st9" d="M500.77,135.22l5.63-2.13l53.37-2.69
				l38.52,2.94l30.28-0.36"/>
			<path id="Path_996_00000113339937808950343910000007117568976882563749_" class="st9" d="M522.07,136.61v-0.71l7.23-0.32v2.02"/>
			<path id="Path_997_00000027573039614365130600000004691934694746903179_" class="st9" d="M530.08,137.59v-2.02l4.61-0.36v3.11"/>
			<path id="Path_998_00000123410573456456600130000008121973020531083666_" class="st9" d="M535.42,138.43v-3.38l7.38-0.19v4.58"/>
			<path id="Path_999_00000044174032428815606700000006406966723902291632_" class="st9" d="M544.66,139.22v-4.77l5.89-0.19v4.83
				L544.66,139.22z"/>
			<path id="Path_1000_00000059292290253192833850000011812769062193203867_" class="st9" d="M551.22,134.26v4.83l6.65-0.16v-4.67
				H551.22z"/>
			<path id="Path_1001_00000063625781659762837860000012284267668741198002_" class="st9" d="M560.15,134.26v4.29l8.99,0.67v-4.7
				L560.15,134.26z"/>
			<path id="Path_1002_00000029018315813198032690000015009785024787761812_" class="st9" d="M570.43,134.65v4.75l7.91,0.85v-5.11
				L570.43,134.65z"/>
			<path id="Path_1003_00000101061105695965462080000006748255690081832363_" class="st9" d="M579.6,140.4l0.13-5.18l7.87,0.62
				l-0.09,5.84C587.52,141.68,580.41,140.55,579.6,140.4z"/>
			<path id="Path_1004_00000083056817146174365470000013150582132127327157_" class="st9" d="M588.6,141.85l0.28-5.84l7.91,0.64
				l-0.11,6.7C596.69,143.34,593.18,142.58,588.6,141.85z"/>
			<path id="Path_1005_00000183957965754024634880000002689871032924980148_" class="st9" d="M599.14,136.54l-0.51,7.14l11.34,1.51
				l1.29-8.65H599.14z"/>
			<path id="Path_1006_00000111181341928540781670000013487702364177461907_" class="st9" d="M638.13,158.77l0.17,7.25l8.79,1.32
				v-6.87L638.13,158.77z"/>
			<path id="Path_1009_00000134969472792467685930000004315987517778767769_" class="st9" d="M562.82,178.07l-0.49-1.31
				c0,0-0.43-1.88-0.9-2.13c-0.47-0.26-0.81,0.47-0.9,0.94c-0.09,0.47-1.71,18.3-1.79,19.24c-0.09,0.94-3.16,3.28-3.54,3.41
				c-0.38,0.13-0.3,0.85-0.3,0.85l4.18,2.01c0,0,10.79,0.34,13.99,0.34s3.68-0.75,3.68-0.75v-1.13l-2.53-3.11l0.13-13.22
				c0.31-0.65,0.58-1.32,0.81-2.01c0.38-1.15,1.28-6.48,1.28-6.48l-3.75-0.17l-0.3,3.41l-4.95,11.01l-0.34,1.58
				c0,0-0.34-0.6-0.64-1.28s-1.79-2.52-1.79-2.52l-1.75-8.57l0.77-4.95l-4.01-0.34l-5.38,25.6l-1.28-0.21l-1.45,7.55l17.36,1.49
				l1.41-5.83"/>
			<path id="Path_1010_00000183948817759798315700000016167450477320046474_" class="st9" d="M635.32,141.13v-4.34
				c0,0-1.02-1.15-0.85-1.58c0.17-0.43,6.35-0.3,6.35-0.3v-0.98h5.03v0.55l3.75-0.04l2.13,6.54"/>
			
				<line id="Line_26_00000158743799339501063940000006304759450896313229_" class="st9" x1="637.96" y1="141.19" x2="637.96" y2="134.9"/>
			
				<line id="Line_27_00000056421969315142319940000007800795209831986333_" class="st9" x1="642.15" y1="141.13" x2="642.07" y2="133.93"/>
			
				<line id="Line_28_00000175317993895252540340000000364291301405555341_" class="st9" x1="643.15" y1="141.09" x2="643.07" y2="133.93"/>
			
				<line id="Line_29_00000021820959426506571360000018317315956347050665_" class="st9" x1="644.16" y1="141.09" x2="644.08" y2="133.93"/>
			
				<line id="Line_30_00000101781659953635834250000009696437278018386100_" class="st9" x1="645.16" y1="141.06" x2="645.08" y2="133.93"/>
			
				<line id="Line_31_00000091701914192409225150000015742234971287333507_" class="st9" x1="646.16" y1="141.06" x2="646.08" y2="134.6"/>
			
				<line id="Line_32_00000176750874854407039860000010687380254634726052_" class="st9" x1="642.19" y1="139.42" x2="646.14" y2="139.42"/>
			
				<line id="Line_33_00000116947773172857204140000004992227998101018002_" class="st9" x1="637.96" y1="138.24" x2="642.07" y2="138.24"/>
			<path id="Path_1011_00000121276060663496038170000008180777963615626390_" class="st9" d="M648.28,134.46v-1h0.55v-1.66h1.41v0.6
				l20.99-0.38c0,0,0.77,0.06,0.68,1.12c-0.09,1.06,0.13,1.3-1.79,1.33s-6.83,0.14-6.83,0.14l-0.55,2.91c0,0-0.17,0.64-0.85,0.32
				c-0.68-0.32-1.32-2.62-1.32-2.62h-3.88l0.09,4.48l21.41-0.28c0,0,0.26-0.02,0.26,0.28v0.77h4.95c0,0,0.94-0.08,0.94,1.41"/>
			<path id="Path_1012_00000030445572908642397860000016899918862804816527_" class="st9" d="M642.65,133.82
				c0,0,0.25-2.36,3.56-3.51c3.31-1.15,46.82-13.56,46.82-13.56v4.62l-25.19,7.33"/>
			<path id="Path_1017_00000170256984028130937760000002045641306360457091_" class="st9" d="M583.5,112.07l-15.07-0.36l-14-1.28
				l-12.02,0.43l-9.64,4.01l-10.32,0.85l-0.36,3.07l10.69-0.85l9.39-4.1l12.4-0.43l13.7,1.11l18.86,0.34"/>
			<path id="Path_1018_00000047019739182618361500000015919425102066986921_" class="st9" d="M587.11,121.9v-7.03h2.34v7.21"/>
			<path id="Path_1019_00000038402146633657674420000005108033684822577294_" class="st9" d="M589.46,114.87
				c0,0,2.09-0.53,2.77-1.69c0.68-1.15,0.38-5.33,0.38-5.33s-1.13-3.03-4.33-3.03c-3.2,0-4.63,2.73-4.65,2.9
				c-0.02,0.17-0.3,4.16,0,4.88c0.3,0.73,1.01,1.92,3.48,2.26"/>
			<path id="Path_1020_00000160162350294263507700000014008475127527552911_" class="st9" d="M583.63,112.61
				c1.09-0.4,2.23-0.63,3.39-0.7c1.73-0.06,4.03-0.03,5.38,0.84"/>
			<path id="Path_1021_00000027590472231424116230000007955386812827415194_" class="st9" d="M535.94,113.55l2.37-23.68l8.45-5.2
				l7.8-0.34l15.41,2.82L568,111.67"/>
			<path id="Path_1022_00000129178439237690259670000015791170928521337528_" class="st9" d="M539.77,99.89l0.5-7.2l6.23-5.8
				l8.45-0.43l11.43,3.84c0,0,0.85-0.43,0.68,2.47c-0.17,2.9-1.61,18.67-1.61,18.67"/>
			
				<line id="Line_35_00000135656370687851948800000000644047149920154541_" class="st9" x1="538.9" y1="112.31" x2="539.64" y2="102.61"/>
			
				<line id="Line_36_00000043427877295320890100000003327881093702774927_" class="st9" x1="549.99" y1="113.57" x2="549.99" y2="120.07"/>
			
				<line id="Line_37_00000062870820759211129670000018047847591795286205_" class="st9" x1="552.64" y1="113.57" x2="552.64" y2="119.91"/>
			<path id="Path_1024_00000040543877918789356000000017466016300370602634_" class="st9" d="M537.88,100.26l23.04-3.39
				c0.87,0.11,1.7,0.41,2.43,0.9c1.09,0.77,0.26,1.13-0.38,1.17c-0.64,0.04-22.84,3.5-22.84,3.5s-2.11,0.38-2.24-0.38
				C537.81,101.45,537.81,100.85,537.88,100.26z"/>
			<path id="Path_1025_00000119109748360858580860000004855135719694594972_" class="st9" d="M547.55,101.28
				c0,0-0.07,2.54,0.19,3.14s0.8,1.07,2.26,1.19c1.45,0.13,2.65-0.64,2.65-1.32v-2.73c0,0-0.14-1.04-0.7-0.96"/>
			
				<line id="Line_38_00000123408444300836104120000007642082649499005370_" class="st9" x1="549.44" y1="110.43" x2="549.44" y2="105.62"/>
			
				<line id="Line_39_00000034077120582951972830000016847139539927031486_" class="st9" x1="550.85" y1="110.56" x2="550.85" y2="105.62"/>
			<path id="Path_1026_00000128443766131350213470000010549877353806602430_" class="st9" d="M524.63,115.54v-9.2
				c0,0,0.24-0.34,0.39-0.13c0.15,0.21,0.1,9.24,0.1,9.24"/>
			<path id="Path_1027_00000161598128066031790860000013513024795194330025_" class="st9" d="M584.64,106.26v-4.03
				c0,0,0.24-0.34,0.39-0.13c0.15,0.21,0.1,3.79,0.1,3.79"/>
			<path id="Path_1028_00000053507828791059191560000005702586827661382076_" class="st9" d="M539.4,107.49l6.87-0.52h3.18"/>
			<path id="Path_1029_00000084504835576290509670000007352301044157987749_" class="st9" d="M525.12,110.43l8.85-1.02l2.4-0.81"/>
			<path id="Path_1030_00000033330835087739885880000011774874077518421177_" class="st9" d="M550.85,106.97h8.6l6.36,0.49"/>
			
				<line id="Line_40_00000165203187304512995610000017699952409086104452_" class="st9" x1="568.31" y1="107.73" x2="583.63" y2="107.72"/>
			
				<line id="Line_41_00000073687598039412439980000003897560859962215316_" class="st9" x1="526.17" y1="121.42" x2="526.09" y2="118.47"/>
			
				<line id="Line_42_00000084513696309840732010000009813543269239333280_" class="st9" x1="528.6" y1="121.28" x2="528.6" y2="118.27"/>
			<path id="Path_1031_00000174574285598558283760000009055488253628064400_" class="st9" d="M525.13,108.6l9.04-1.14l2.46-0.88"/>
			<path id="Path_1032_00000034806988494097726690000004788312977182173846_" class="st9" d="M539.44,105.31l3.05-1.16l5.15-0.14"/>
			<path id="Path_1033_00000066516647010586250120000011106776911290839703_" class="st9" d="M552.64,104.01l11.35,0.23l2.08,0.32"
				/>
			
				<line id="Line_43_00000062901942865666820680000004682730682378003631_" class="st9" x1="568.54" y1="104.82" x2="584.64" y2="104.82"/>
			
				<line id="Line_44_00000179628555292219143380000001924362470452658826_" class="st9" x1="565.06" y1="114.27" x2="564.64" y2="120.19"/>
			
				<line id="Line_45_00000068662688814970805830000006579806981885735325_" class="st9" x1="567.87" y1="114.49" x2="567.49" y2="120.41"/>
			
				<line id="Line_46_00000106840490610492284890000012124675747846241953_" class="st9" x1="535.74" y1="116.64" x2="535.42" y2="120.9"/>
			
				<line id="Line_47_00000014635850917836883390000004309262586831343769_" class="st9" x1="538.9" y1="115.26" x2="538.65" y2="120.71"/>
		</g>
	</g>
</g>
<g id="Warstwa_2">
</g>
</svg>
