<?xml version="1.0" encoding="utf-8"?>
<!-- Generator: Adobe Illustrator 26.0.3, SVG Export Plug-In . SVG Version: 6.00 Build 0)  -->
<svg version="1.1" xmlns="http://www.w3.org/2000/svg" xmlns:xlink="http://www.w3.org/1999/xlink" x="0px" y="0px"
	 viewBox="0 0 361.47 285.78" style="enable-background:new 0 0 361.47 285.78;" xml:space="preserve">
<style type="text/css">
	.st0{clip-path:url(#SVGID_00000025432028147748524920000009616527876153103800_);}
	.st1{fill:none;stroke:#CED0D1;stroke-width:0.5;stroke-miterlimit:10;}
</style>
<g id="Layer_1">
	<g>
		<defs>
			<rect id="SVGID_1_" width="258.85" height="285.78"/>
		</defs>
		<clipPath id="SVGID_00000157991668040625421140000010900533492054490802_">
			<use xlink:href="#SVGID_1_"  style="overflow:visible;"/>
		</clipPath>
		
			<g id="Group_36_00000008866175142050482770000002894835531105904046_" transform="translate(0.5 0.5)" style="clip-path:url(#SVGID_00000157991668040625421140000010900533492054490802_);">
			<path id="Path_988_00000013887643231804051930000007161107020823636897_" class="st1" d="M83.75,267.06l3.07-18.26L45.19,147.95
				c0,0-1.54-2.22-1.71-6.65c-0.17-4.44,0.68-7.17,0.68-7.17H31.71c0,0-0.79-1.3,1.96-1.36c2.75-0.06-0.13-1.15-0.13-1.15h-7.42
				l-8.45-2.43l1.47-12.67l16.76-0.83l0.06-2.11l14.33-1.09c0,0,1.51-1.28,1.94-1.6l0.43-0.32v-4.16l2.3-2.11h10.49
				c0.63-0.37,1.29-0.67,1.98-0.9c1.15-0.38,2.05-0.64,2.05-0.64l3.84-3.07c0,0-2.18-0.58-2.37-1.41s-0.26-2.56,0.45-2.62
				c0.7-0.06,2.5,0.26,2.5,0.26l0.9-2.62l-2.88-0.77c0,0-0.7-1.41,0.26-1.86c0.96-0.45,9.34,2.69,9.34,2.69l3.33-2.37l19-1.98
				l17.47-6.27l42.68-2.43l35.45,2.69l23.55-0.45l18.04,16.45l-1.6,2.94l42.23-0.64v1.22l24.76,0.06l3.2,3.39l-0.38,13.95
				l-22.33,0.83c0,0-1.86,0.13-2.43,1.22s-0.38,1.6-0.38,1.6l1.41,19c0,0,17.09,4.22,22.4,6.08c3.39,1.23,6.64,2.84,9.66,4.8
				l-7.42,43.51c0,0-2.11,7.1-2.37,11.2s-1.15,8.19,1.54,9.41c2.69,1.22,9.79,0.58,11.07,0.64c1.28,0.06,12.29,1.98,12.29,1.98
				l28.03,7.17v9.15l-90.93,18.11c0,0-130.54,8.45-144.74,9.6C110.84,265.35,93.39,265.82,83.75,267.06z"/>
			<path id="Path_989_00000161627360241690991020000003715062740170484917_" class="st1" d="M43.31,142.83
				c0,0,1.71-12.63,17.58-17.92c15.87-5.29,54.77-7,83.95-4.1c29.18,2.9,140.69,21.74,140.69,21.74"/>
			<path id="Path_990_00000163756327572799594600000008501387123825057960_" class="st1" d="M69.5,102.75c0,0,19.45-5.95,22.91-6.33
				c3.46-0.38,22.52-1.02,30.07,0s82.03,11.13,89.07,12.29c7.04,1.15,56.31,10.11,56.31,10.11s0.13-1.41,2.56-1.54
				c2.43-0.13,35.71-0.51,35.71-0.51l3.14,3.14"/>
			<path id="Path_991_00000114777588809264786300000000328255336488895647_" class="st1" d="M87.08,266.69l10.5-55.77
				c0,0,0.34-1.54,0-2.39c-0.34-0.85-3.33-1.02-4.01-0.6s-6.74,40.87-6.74,40.87"/>
			<path id="Path_992_00000168077285391833627770000016661916029744111015_" class="st1" d="M62.32,189.44c0,0,3.35-7.54,17.68-9.84
				s78.32,0.77,96.75,2.3c18.43,1.54,133.66,13.62,133.66,13.62"/>
			<path id="Path_993_00000030474019876938556210000012072368983294196631_" class="st1" d="M180.9,154.77
				c56.2,7.02,133.24,18.91,133.24,18.91"/>
			<path id="Path_994_00000150103979749944519910000016468185610595048080_" class="st1" d="M52.61,165.93
				c0,0,7.17-9.88,14.84-12.18s28.41-7.68,79.6-2.82c4.59,0.44,9.7,0.98,15.2,1.6"/>
			<path id="Path_995_00000022557215046543101830000010228668599524914311_" class="st1" d="M107.39,95.87l5.63-2.13l53.37-2.69
				l38.52,2.94l30.28-0.36"/>
			<path id="Path_996_00000113339937808950343910000007117568976882563749_" class="st1" d="M128.69,97.26v-0.71l7.23-0.32v2.02"/>
			<path id="Path_997_00000027573039614365130600000004691934694746903179_" class="st1" d="M136.69,98.24v-2.02l4.61-0.36v3.11"/>
			<path id="Path_998_00000123410573456456600130000008121973020531083666_" class="st1" d="M142.04,99.08v-3.38l7.38-0.19v4.58"/>
			<path id="Path_999_00000044174032428815606700000006406966723902291632_" class="st1" d="M151.28,99.87v-4.77l5.89-0.19v4.83
				L151.28,99.87z"/>
			<path id="Path_1000_00000059292290253192833850000011812769062193203867_" class="st1" d="M157.84,94.91v4.83l6.65-0.16v-4.67
				H157.84z"/>
			<path id="Path_1001_00000063625781659762837860000012284267668741198002_" class="st1" d="M166.77,94.91v4.29l8.99,0.67v-4.7
				L166.77,94.91z"/>
			<path id="Path_1002_00000029018315813198032690000015009785024787761812_" class="st1" d="M177.05,95.29v4.75l7.91,0.85v-5.11
				L177.05,95.29z"/>
			<path id="Path_1003_00000101061105695965462080000006748255690081832363_" class="st1" d="M186.22,101.05l0.13-5.18l7.87,0.62
				l-0.09,5.84C194.13,102.33,187.03,101.2,186.22,101.05z"/>
			<path id="Path_1004_00000083056817146174365470000013150582132127327157_" class="st1" d="M195.22,102.5l0.28-5.84l7.91,0.64
				l-0.11,6.7C203.3,103.99,199.8,103.23,195.22,102.5z"/>
			<path id="Path_1005_00000183957965754024634880000002689871032924980148_" class="st1" d="M205.76,97.19l-0.51,7.14l11.34,1.51
				l1.29-8.65H205.76z"/>
			<path id="Path_1006_00000111181341928540781670000013487702364177461907_" class="st1" d="M244.75,119.42l0.17,7.25l8.79,1.32
				v-6.87L244.75,119.42z"/>
			<path id="Path_1007_00000119093352726796816280000017653678343049868206_" class="st1" d="M261.94,122.82v6.31l5.5,0.73v-5.92
				L261.94,122.82z"/>
			<path id="Path_1008_00000170966577988294659550000014641200543086110355_" class="st1" d="M280.33,126.66v6.44l3.07,0.38v-6.1
				L280.33,126.66z"/>
			<path id="Path_1009_00000134969472792467685930000004315987517778767769_" class="st1" d="M169.43,138.72l-0.49-1.31
				c0,0-0.43-1.88-0.9-2.13c-0.47-0.26-0.81,0.47-0.9,0.94c-0.09,0.47-1.71,18.3-1.79,19.24c-0.09,0.94-3.16,3.28-3.54,3.41
				c-0.38,0.13-0.3,0.85-0.3,0.85l4.18,2.01c0,0,10.79,0.34,13.99,0.34c3.2,0,3.68-0.75,3.68-0.75v-1.13l-2.53-3.11l0.13-13.22
				c0.31-0.65,0.58-1.32,0.81-2.01c0.38-1.15,1.28-6.48,1.28-6.48l-3.75-0.17l-0.3,3.41l-4.95,11.01l-0.34,1.58
				c0,0-0.34-0.6-0.64-1.28c-0.3-0.68-1.79-2.52-1.79-2.52l-1.75-8.57l0.77-4.95l-4.01-0.34l-5.38,25.6l-1.28-0.21l-1.45,7.55
				l17.36,1.49l1.41-5.83"/>
			<path id="Path_1010_00000183948817759798315700000016167450477320046474_" class="st1" d="M241.93,101.78v-4.34
				c0,0-1.02-1.15-0.85-1.58s6.36-0.3,6.36-0.3v-0.98h5.03v0.55l3.75-0.04l2.13,6.54"/>
			
				<line id="Line_26_00000158743799339501063940000006304759450896313229_" class="st1" x1="244.58" y1="101.84" x2="244.58" y2="95.55"/>
			
				<line id="Line_27_00000056421969315142319940000007800795209831986333_" class="st1" x1="248.77" y1="101.78" x2="248.69" y2="94.58"/>
			
				<line id="Line_28_00000175317993895252540340000000364291301405555341_" class="st1" x1="249.77" y1="101.73" x2="249.69" y2="94.58"/>
			
				<line id="Line_29_00000021820959426506571360000018317315956347050665_" class="st1" x1="250.77" y1="101.74" x2="250.69" y2="94.58"/>
			
				<line id="Line_30_00000101781659953635834250000009696437278018386100_" class="st1" x1="251.77" y1="101.71" x2="251.7" y2="94.58"/>
			
				<line id="Line_31_00000091701914192409225150000015742234971287333507_" class="st1" x1="252.78" y1="101.71" x2="252.7" y2="95.25"/>
			
				<line id="Line_32_00000176750874854407039860000010687380254634726052_" class="st1" x1="248.8" y1="100.07" x2="252.76" y2="100.07"/>
			
				<line id="Line_33_00000116947773172857204140000004992227998101018002_" class="st1" x1="244.58" y1="98.89" x2="248.69" y2="98.89"/>
			<path id="Path_1011_00000121276060663496038170000008180777963615626390_" class="st1" d="M254.9,95.11v-1h0.55v-1.66h1.41v0.6
				l20.99-0.38c0,0,0.77,0.06,0.68,1.12s0.13,1.3-1.79,1.33c-1.92,0.03-6.83,0.14-6.83,0.14l-0.55,2.91c0,0-0.17,0.64-0.85,0.32
				c-0.68-0.32-1.32-2.62-1.32-2.62h-3.88l0.09,4.48l21.41-0.28c0,0,0.26-0.02,0.26,0.28v0.77h4.95c0,0,0.94-0.08,0.94,1.41"/>
			
				<ellipse id="Ellipse_3_00000067943360378542499530000000598498469067655094_" class="st1" cx="261.68" cy="94.59" rx="0.51" ry="0.51"/>
			
				<ellipse id="Ellipse_4_00000070828465373544023710000009862834681179086012_" class="st1" cx="276.54" cy="94" rx="0.51" ry="0.51"/>
			
				<line id="Line_34_00000163783540550287278860000000379579018760081341_" class="st1" x1="277.69" y1="95.11" x2="277.82" y2="100.16"/>
			<path id="Path_1012_00000030445572908642397860000016899918862804816527_" class="st1" d="M249.27,94.47c0,0,0.25-2.36,3.56-3.51
				c3.31-1.15,46.82-13.56,46.82-13.56v4.62l-25.19,7.33"/>
			<path id="Path_1013_00000164476458604909427520000017046717883549158052_" class="st1" d="M266.91,92.86l6.46-6.11h1.09v5.82"/>
			<path id="Path_1014_00000124146300305290238230000014896335782411808660_" class="st1" d="M268.83,92.74l4.51-4.48l-0.13,4.49"/>
			<path id="Path_1015_00000011732350684799996410000002544102852029134982_" class="st1" d="M278.46,94.59l20.83-5.98v-2.24
				l-21.44,6.29"/>
			<path id="Path_1016_00000140734343589851865970000014469567982129576885_" class="st1" d="M274.46,90.08l24.28-7.13v3.58"/>
			<path id="Path_1017_00000170256984028130937760000002045641306360457091_" class="st1" d="M190.11,72.72l-15.07-0.36l-14-1.28
				l-12.02,0.43l-9.64,4.01l-10.32,0.85l-0.36,3.07l10.69-0.85l9.39-4.1l12.4-0.43l13.7,1.11l18.86,0.34"/>
			<path id="Path_1018_00000047019739182618361500000015919425102066986921_" class="st1" d="M193.73,82.55v-7.03h2.34v7.21"/>
			<path id="Path_1019_00000038402146633657674420000005108033684822577294_" class="st1" d="M196.07,75.52c0,0,2.09-0.53,2.77-1.69
				c0.68-1.15,0.38-5.33,0.38-5.33s-1.13-3.03-4.33-3.03s-4.63,2.73-4.65,2.9s-0.3,4.16,0,4.88s1.01,1.92,3.48,2.26"/>
			<path id="Path_1020_00000160162350294263507700000014008475127527552911_" class="st1" d="M190.25,73.25
				c1.09-0.4,2.23-0.63,3.39-0.7c1.73-0.06,4.03-0.03,5.38,0.84"/>
			<path id="Path_1021_00000027590472231424116230000007955386812827415194_" class="st1" d="M142.55,74.19l2.37-23.68l8.45-5.2
				l7.8-0.34l15.41,2.82l-1.97,24.53"/>
			<path id="Path_1022_00000129178439237690259670000015791170928521337528_" class="st1" d="M146.39,60.53l0.5-7.2l6.23-5.8
				l8.45-0.43l11.43,3.84c0,0,0.85-0.43,0.68,2.47c-0.17,2.9-1.61,18.67-1.61,18.67"/>
			
				<line id="Line_35_00000135656370687851948800000000644047149920154541_" class="st1" x1="145.52" y1="72.96" x2="146.26" y2="63.26"/>
			
				<line id="Line_36_00000043427877295320890100000003327881093702774927_" class="st1" x1="156.61" y1="74.22" x2="156.61" y2="80.71"/>
			
				<line id="Line_37_00000062870820759211129670000018047847591795286205_" class="st1" x1="159.26" y1="74.22" x2="159.26" y2="80.56"/>
			<path id="Path_1024_00000040543877918789356000000017466016300370602634_" class="st1" d="M144.5,60.9l23.04-3.39
				c0.87,0.11,1.7,0.41,2.43,0.9c1.09,0.77,0.26,1.13-0.38,1.17c-0.64,0.04-22.84,3.5-22.84,3.5s-2.11,0.38-2.24-0.38
				C144.43,62.1,144.43,61.5,144.5,60.9z"/>
			<path id="Path_1025_00000119109748360858580860000004855135719694594972_" class="st1" d="M154.17,61.93c0,0-0.07,2.54,0.19,3.14
				c0.26,0.6,0.8,1.07,2.26,1.19c1.45,0.13,2.65-0.64,2.65-1.32v-2.73c0,0-0.14-1.04-0.7-0.96"/>
			
				<line id="Line_38_00000123408444300836104120000007642082649499005370_" class="st1" x1="156.06" y1="71.08" x2="156.06" y2="66.27"/>
			
				<line id="Line_39_00000034077120582951972830000016847139539927031486_" class="st1" x1="157.47" y1="71.21" x2="157.47" y2="66.27"/>
			<path id="Path_1026_00000128443766131350213470000010549877353806602430_" class="st1" d="M131.25,76.19v-9.2
				c0,0,0.24-0.34,0.39-0.13c0.15,0.21,0.1,9.24,0.1,9.24"/>
			<path id="Path_1027_00000161598128066031790860000013513024795194330025_" class="st1" d="M191.26,66.91v-4.03
				c0,0,0.24-0.34,0.39-0.13c0.15,0.21,0.1,3.79,0.1,3.79"/>
			<path id="Path_1028_00000053507828791059191560000005702586827661382076_" class="st1" d="M146.02,68.14l6.87-0.52h3.18"/>
			<path id="Path_1029_00000084504835576290509670000007352301044157987749_" class="st1" d="M131.74,71.08l8.85-1.02l2.4-0.81"/>
			<path id="Path_1030_00000033330835087739885880000011774874077518421177_" class="st1" d="M157.47,67.62h8.6l6.36,0.49"/>
			
				<line id="Line_40_00000165203187304512995610000017699952409086104452_" class="st1" x1="174.93" y1="68.38" x2="190.25" y2="68.37"/>
			
				<line id="Line_41_00000073687598039412439980000003897560859962215316_" class="st1" x1="132.79" y1="82.07" x2="132.71" y2="79.12"/>
			
				<line id="Line_42_00000084513696309840732010000009813543269239333280_" class="st1" x1="135.22" y1="81.93" x2="135.22" y2="78.92"/>
			<path id="Path_1031_00000174574285598558283760000009055488253628064400_" class="st1" d="M131.74,69.25l9.04-1.14l2.46-0.88"/>
			<path id="Path_1032_00000034806988494097726690000004788312977182173846_" class="st1" d="M146.05,65.96l3.05-1.16l5.15-0.14"/>
			<path id="Path_1033_00000066516647010586250120000011106776911290839703_" class="st1" d="M159.26,64.66l11.35,0.23l2.08,0.32"/>
			
				<line id="Line_43_00000062901942865666820680000004682730682378003631_" class="st1" x1="175.16" y1="65.47" x2="191.26" y2="65.47"/>
			
				<line id="Line_44_00000179628555292219143380000001924362470452658826_" class="st1" x1="171.67" y1="74.92" x2="171.26" y2="80.84"/>
			
				<line id="Line_45_00000068662688814970805830000006579806981885735325_" class="st1" x1="174.48" y1="75.14" x2="174.1" y2="81.06"/>
			
				<line id="Line_46_00000106840490610492284890000012124675747846241953_" class="st1" x1="142.35" y1="77.29" x2="142.04" y2="81.55"/>
			
				<line id="Line_47_00000014635850917836883390000004309262586831343769_" class="st1" x1="145.52" y1="75.91" x2="145.27" y2="81.36"/>
			<path id="Path_1034_00000106831882197209699570000013713720591271703942_" class="st1" d="M307.85,207.5l11.72,0.65l39.16,14.33
				v4.36"/>
			
				<line id="Line_48_00000039840957386850460870000014724193184967468966_" class="st1" x1="320.21" y1="218.19" x2="319.57" y2="208.14"/>
			<path id="Path_1035_00000029019042924661731430000017781551321569882300_" class="st1" d="M307.47,213.98l12.43,0.3l38.84,11.13"
				/>
		</g>
	</g>
</g>
<g id="Warstwa_2">
</g>
</svg>
